# xmcd
#
# Track frame offsets:
#	150
#	24872
#	45420
#	59145
#	79572
#	92992
#	110125
#	132102
#	148515
#	172447
#	188880
#	203887
#
# Disc length: 2871
#
# Revision: 4
# Processed by: cddbd v1.5.1PL0 Copyright (c) Steve Scherf et al.
# Submitted via: ExactAudioCopy v0.95a5
# Normalized: r3:DSWAP,DSETVAR1,TDELIM( - )
#
DISCID=ad0b350c
DTITLE=Various Artist - Remembering Patsy Cline
DYEAR=2003
DGENRE=Country
TTITLE0=Natalie Cole - I Fall To Pieces
TTITLE1=Norah Jones - Why Can't He Be You
TTITLE2=Amy Grant - Back In Baby's Arms
TTITLE3=Diana Krall - Crazy
TTITLE4=Michelle Branch - Strange
TTITLE5=Lee Ann Womack - She's Got You
TTITLE6=k.d. Lang - Leavin' On Your Mind
TTITLE7=Terri Clark - Walkin' After Midnight
TTITLE8=Rebecca Lynn Howard - You're Stronger Than Me
TTITLE9=Patty Griffin - Faded Love
TTITLE10=Jessi Alexander - So Wrong
TTITLE11=Martina McBride - Sweet Dreams
EXTD=
EXTT0=
EXTT1=
EXTT2=
EXTT3=
EXTT4=
EXTT5=
EXTT6=
EXTT7=
EXTT8=
EXTT9=
EXTT10=
EXTT11=
PLAYORDER=
